<svg viewBox="0 0 60 63.45177664974619" x="0" y="0" width="100" height="100" class="image-svg-svg bn" style="overflow: visible;"><g hollow-target="iconBnFill" mask="url(#39e13b24-2a92-469d-bc98-7b377e09768c)"><g><svg viewBox="0 0.00058 61.46301 64.99914" xmlns="http://www.w3.org/2000/svg" style="overflow: visible;" width="60" height="63.45177664974619" x="0" y="0" filtersec="colorsf7780504067" filter="url(#-M1qAtR25bzmgbasWvlRb)"><g transform="scale(1, 1) skewX(0)"><g fill="#000" fill-rule="nonzero"><path d="M53.055 8.112c-6.988-1.302-13.052-4.276-17.09-6.674a10.246 10.246 0 0 0-10.467 0C21.461 3.836 15.397 6.81 8.408 8.112 3.542 9.019 0 13.244 0 18.194v28.612c0 4.95 3.542 9.175 8.408 10.082 6.988 1.302 13.052 4.276 17.09 6.674a10.246 10.246 0 0 0 10.468 0c4.037-2.398 10.101-5.372 17.09-6.674 4.865-.907 8.407-5.132 8.407-10.082V18.194c0-4.95-3.542-9.175-8.408-10.082zm5.75 38.694c0 3.654-2.623 6.796-6.237 7.47-7.436 1.386-13.87 4.573-17.96 7.002a7.588 7.588 0 0 1-7.753 0c-4.088-2.43-10.524-5.616-17.96-7.002-3.613-.674-6.237-3.816-6.237-7.47V18.194c0-3.654 2.623-6.796 6.238-7.47 7.436-1.386 13.87-4.573 17.96-7.002a7.583 7.583 0 0 1 7.752 0c4.088 2.429 10.523 5.615 17.96 7.001 3.614.674 6.237 3.816 6.237 7.47v28.613z"></path><path d="M52.142 11.427C44.78 10.055 38.412 6.903 34.367 4.5a7.124 7.124 0 0 0-7.271 0c-4.045 2.403-10.412 5.556-17.775 6.928-3.39.632-5.851 3.578-5.851 7.005v28.136c0 3.428 2.46 6.374 5.851 7.006 7.363 1.372 13.73 4.525 17.775 6.928a7.12 7.12 0 0 0 7.27 0c4.046-2.403 10.413-5.556 17.775-6.928 3.39-.632 5.852-3.579 5.852-7.006V18.433c0-3.428-2.461-6.373-5.851-7.006z"></path></g></g><defs><filter id="-M1qAtR25bzmgbasWvlRb"><feColorMatrix type="matrix" values="0 0 0 0 0.19921875  0 0 0 0 0.19921875  0 0 0 0 0.19921875  0 0 0 1 0"></feColorMatrix></filter></defs></svg></g> <g filter="url(#colors9512041415)"><svg xmlns="http://www.w3.org/2000/svg" xmlns:xlink="http://www.w3.org/1999/xlink" viewBox="0 0 65.37600000000002 51.120000000000005" width="45" height="47.58883" x="7.5" y="7.931473324873096" class="image-svg-letter"><path transform="translate(-1.7280000000000002 51.120000000000005)" d="M16.27-18.22Q15.77-18.22 15.34-18.61Q14.90-19.01 14.90-19.51L14.90-19.51Q14.90-19.87 14.98-20.09L14.98-20.09Q15.77-22.46 17.53-24.62Q19.30-26.78 21.96-29.23L21.96-29.23Q24.19-31.39 25.16-32.54Q26.14-33.70 26.14-34.78L26.14-34.78Q26.14-35.86 25.45-36.47Q24.77-37.08 23.69-37.08L23.69-37.08Q21.82-37.08 21.02-36.40Q20.23-35.71 19.51-34.42L19.51-34.42Q19.01-33.48 18.50-33.05Q18.00-32.62 16.92-32.62L16.92-32.62L3.53-32.62Q2.74-32.62 2.23-33.23Q1.73-33.84 1.73-34.85L1.73-34.85Q1.87-38.74 4.46-42.48Q7.06-46.22 12.24-48.67Q17.42-51.12 24.98-51.12L24.98-51.12Q32.62-51.12 37.15-48.89Q41.69-46.66 43.45-43.60Q45.22-40.54 45.22-37.66L45.22-37.66Q45.22-34.92 44.21-32.62Q43.20-30.31 41.80-28.58Q40.39-26.86 38.02-24.48L38.02-24.48Q36.36-22.82 35.06-21.31L35.06-21.31Q34.34-20.38 34.27-20.30L34.27-20.30Q33.34-19.01 32.94-18.61Q32.54-18.22 31.68-18.22L31.68-18.22L16.27-18.22ZM16.99 0Q16.20 0 15.62-0.58Q15.05-1.15 15.05-1.94L15.05-1.94L15.05-13.39Q15.05-14.18 15.62-14.76Q16.20-15.34 16.99-15.34L16.99-15.34L30.17-15.34Q30.96-15.34 31.54-14.76Q32.11-14.18 32.11-13.39L32.11-13.39L32.11-1.94Q32.11-1.15 31.54-0.58Q30.96 0 30.17 0L30.17 0L16.99 0ZM52.63-19.30Q51.84-19.30 51.26-19.87Q50.69-20.45 50.69-21.24L50.69-21.24L50.69-48.46Q50.69-49.25 51.26-49.82Q51.84-50.40 52.63-50.40L52.63-50.40L65.16-50.40Q65.95-50.40 66.53-49.82Q67.10-49.25 67.10-48.46L67.10-48.46L67.10-21.24Q67.10-20.45 66.53-19.87Q65.95-19.30 65.16-19.30L65.16-19.30L52.63-19.30ZM52.63 0Q51.84 0 51.26-0.58Q50.69-1.15 50.69-1.94L50.69-1.94L50.69-14.47Q50.69-15.26 51.26-15.84Q51.84-16.42 52.63-16.42L52.63-16.42L65.16-16.42Q65.95-16.42 66.53-15.84Q67.10-15.26 67.10-14.47L67.10-14.47L67.10-1.94Q67.10-1.15 66.53-0.58Q65.95 0 65.16 0L65.16 0L52.63 0Z"></path></svg></g></g><mask id="39e13b24-2a92-469d-bc98-7b377e09768c"><g fill="white"><svg viewBox="0 0.00058 61.46301 64.99914" xmlns="http://www.w3.org/2000/svg" style="overflow: visible;" width="60" height="63.45177664974619" x="0" y="0" filtersec="colorsf7780504067"><g transform="scale(1, 1) skewX(0)"><g fill-rule="nonzero"><path d="M53.055 8.112c-6.988-1.302-13.052-4.276-17.09-6.674a10.246 10.246 0 0 0-10.467 0C21.461 3.836 15.397 6.81 8.408 8.112 3.542 9.019 0 13.244 0 18.194v28.612c0 4.95 3.542 9.175 8.408 10.082 6.988 1.302 13.052 4.276 17.09 6.674a10.246 10.246 0 0 0 10.468 0c4.037-2.398 10.101-5.372 17.09-6.674 4.865-.907 8.407-5.132 8.407-10.082V18.194c0-4.95-3.542-9.175-8.408-10.082zm5.75 38.694c0 3.654-2.623 6.796-6.237 7.47-7.436 1.386-13.87 4.573-17.96 7.002a7.588 7.588 0 0 1-7.753 0c-4.088-2.43-10.524-5.616-17.96-7.002-3.613-.674-6.237-3.816-6.237-7.47V18.194c0-3.654 2.623-6.796 6.238-7.47 7.436-1.386 13.87-4.573 17.96-7.002a7.583 7.583 0 0 1 7.752 0c4.088 2.429 10.523 5.615 17.96 7.001 3.614.674 6.237 3.816 6.237 7.47v28.613z"></path><path d="M52.142 11.427C44.78 10.055 38.412 6.903 34.367 4.5a7.124 7.124 0 0 0-7.271 0c-4.045 2.403-10.412 5.556-17.775 6.928-3.39.632-5.851 3.578-5.851 7.005v28.136c0 3.428 2.46 6.374 5.851 7.006 7.363 1.372 13.73 4.525 17.775 6.928a7.12 7.12 0 0 0 7.27 0c4.046-2.403 10.413-5.556 17.775-6.928 3.39-.632 5.852-3.579 5.852-7.006V18.433c0-3.428-2.461-6.373-5.851-7.006z"></path></g></g><defs></defs></svg></g> <g fill="black"><svg xmlns="http://www.w3.org/2000/svg" xmlns:xlink="http://www.w3.org/1999/xlink" viewBox="0 0 65.37600000000002 51.120000000000005" width="45" height="47.58883" x="7.5" y="7.931473324873096" class="image-svg-letter"><path transform="translate(-1.7280000000000002 51.120000000000005)" d="M16.27-18.22Q15.77-18.22 15.34-18.61Q14.90-19.01 14.90-19.51L14.90-19.51Q14.90-19.87 14.98-20.09L14.98-20.09Q15.77-22.46 17.53-24.62Q19.30-26.78 21.96-29.23L21.96-29.23Q24.19-31.39 25.16-32.54Q26.14-33.70 26.14-34.78L26.14-34.78Q26.14-35.86 25.45-36.47Q24.77-37.08 23.69-37.08L23.69-37.08Q21.82-37.08 21.02-36.40Q20.23-35.71 19.51-34.42L19.51-34.42Q19.01-33.48 18.50-33.05Q18.00-32.62 16.92-32.62L16.92-32.62L3.53-32.62Q2.74-32.62 2.23-33.23Q1.73-33.84 1.73-34.85L1.73-34.85Q1.87-38.74 4.46-42.48Q7.06-46.22 12.24-48.67Q17.42-51.12 24.98-51.12L24.98-51.12Q32.62-51.12 37.15-48.89Q41.69-46.66 43.45-43.60Q45.22-40.54 45.22-37.66L45.22-37.66Q45.22-34.92 44.21-32.62Q43.20-30.31 41.80-28.58Q40.39-26.86 38.02-24.48L38.02-24.48Q36.36-22.82 35.06-21.31L35.06-21.31Q34.34-20.38 34.27-20.30L34.27-20.30Q33.34-19.01 32.94-18.61Q32.54-18.22 31.68-18.22L31.68-18.22L16.27-18.22ZM16.99 0Q16.20 0 15.62-0.58Q15.05-1.15 15.05-1.94L15.05-1.94L15.05-13.39Q15.05-14.18 15.62-14.76Q16.20-15.34 16.99-15.34L16.99-15.34L30.17-15.34Q30.96-15.34 31.54-14.76Q32.11-14.18 32.11-13.39L32.11-13.39L32.11-1.94Q32.11-1.15 31.54-0.58Q30.96 0 30.17 0L30.17 0L16.99 0ZM52.63-19.30Q51.84-19.30 51.26-19.87Q50.69-20.45 50.69-21.24L50.69-21.24L50.69-48.46Q50.69-49.25 51.26-49.82Q51.84-50.40 52.63-50.40L52.63-50.40L65.16-50.40Q65.95-50.40 66.53-49.82Q67.10-49.25 67.10-48.46L67.10-48.46L67.10-21.24Q67.10-20.45 66.53-19.87Q65.95-19.30 65.16-19.30L65.16-19.30L52.63-19.30ZM52.63 0Q51.84 0 51.26-0.58Q50.69-1.15 50.69-1.94L50.69-1.94L50.69-14.47Q50.69-15.26 51.26-15.84Q51.84-16.42 52.63-16.42L52.63-16.42L65.16-16.42Q65.95-16.42 66.53-15.84Q67.10-15.26 67.10-14.47L67.10-14.47L67.10-1.94Q67.10-1.15 66.53-0.58Q65.95 0 65.16 0L65.16 0L52.63 0Z"></path></svg></g></mask></svg>
