<svg xmlns="http://www.w3.org/2000/svg" width="189.3" height="198.7" version="1.0" viewBox="0 0 142 149"><path d="M51.5 10.5C42.8 14.8 34.7 18 27 20c-12.7 3.4-17 6-20.7 12.6C4.1 36.4 4 37 4 74.3c0 35.6.1 38 2 41.6 3 6 8.2 9.7 16.4 11.7 10.8 2.6 20 6.1 31.7 12 9.4 4.8 11.3 5.4 16.8 5.4 5.6 0 7.5-.6 19.4-6.5a152 152 0 0 1 21.2-8.6c16.8-4.5 20.9-6.8 24.5-14 1.9-3.6 2-6.1 2-41.4 0-35.2-.1-37.8-1.9-41.4-2.6-5-8.1-9.8-12.8-11L111.5 19c-4.4-1.1-13.9-5-21.1-8.5C78.3 4.5 76.7 4 70.9 4c-5.8.1-7.6.6-19.4 6.5zm34.2 4c9.5 4.9 18.5 8.2 34 12.4a18.8 18.8 0 0 1 11.9 9.8c2 4.7 2 70.9 0 75.6a18.5 18.5 0 0 1-11.9 9.8 154 154 0 0 0-33.3 12A57.2 57.2 0 0 1 71 140c-2.1 0-8-2.3-15.4-5.9a154 154 0 0 0-33.3-12 18.5 18.5 0 0 1-11.9-9.8c-2-4.7-2-70.9 0-75.6 2.5-6 6.3-8.4 18.1-11.6a148 148 0 0 0 32.5-13c8.2-4.6 11.7-4.3 24.7 2.4z"/><path d="M55.8 17a147 147 0 0 1-32.5 11.9c-5.6 1.5-10 5.4-11.3 9.9-.7 2.4-1 15.5-.8 37.9.3 32.8.4 34.3 2.4 37 2.7 3.7 6.9 5.7 18.4 8.8a164 164 0 0 1 23 9.1 94.9 94.9 0 0 0 16 6.4c1.4 0 8.6-2.9 16-6.5 7.4-3.5 17.8-7.6 23-9 13.3-3.6 16.1-5.1 18.8-10.5 2.3-4.5 2.3-4.8 2-39.1l-.3-34.6-2.7-3.5c-2.9-3.9-4.5-4.5-21.8-9.8a156 156 0 0 1-21.1-8.6 46 46 0 0 0-14-5.4c-2.1 0-7.7 2.2-15.1 6zM70 36.1A24 24 0 0 1 83.8 47c4.5 8.9 2.2 15.8-9.8 28.8l-7.5 8.1-12.7.1c-7.9 0-12.9-.4-13.3-1.1-1.5-2.3 1-6.6 8.6-14.5 4.3-4.5 7.9-8.5 7.9-8.7 0-2.4-1.6-3.7-4.5-3.7-2.6 0-3.9.7-5.5 3l-2.2 3.1-12.1-.3-12.2-.3-.3-3.3c-.9-9.5 10.2-20.3 24.1-23.2 5.2-1.1 21-.5 25.7 1.1zm47.8-.3c.9.7 1.2 6 1 23.3l-.3 22.4h-24l-.3-22c-.1-12.1 0-22.5.2-23.2.6-1.5 21.2-1.9 23.4-.5zm.1 51.6c.8.9 1.1 5.1.9 12.2l-.3 10.9h-24l-.3-10.9c-.2-7.1.1-11.3.9-12.2.8-1 3.8-1.4 11.4-1.4 7.6 0 10.6.4 11.4 1.4zM65.5 99.5v11h-25l-.3-9.9c-.1-5.5 0-10.6.2-11.3.4-1.1 3.2-1.3 12.8-1.1l12.3.3v11z"/></svg>
